<svg xmlns="http://www.w3.org/2000/svg" width="615" height="233" viewBox="-1.5 316.672 615 233"><path fill="#4D555A" d="M436.739 420.477c2.151-14.98-5.767-32.193-18.834-43.448-19.637-16.93-54.945-24.647-89.094-3.796-1.759 1.076-3.452 1.229-4.284.736-1.31-.774-1.108-2.697-.1-3.944 7.258-9.003 36.935-48.912 79.311-48.912 28.157 0 54.664 19.727 62.252 48.008 1.989 7.411 2.917 13.607 2.965 18.924 0 0-4.002 18.059-24.91 28.969a102.682 102.682 0 0 1-7.306 3.463"/><path fill="#F5821F" d="M286.24 342.996c10.002 9.036 63.982 56.6 70.494 62.342 35.133 30.983 67.281 22.123 87.306 11.672 20.908-10.906 24.92-28.97 24.91-28.97.091 5.996.976 42.572-35.108 66.378-23.615 15.592-64.676 27.794-110.447-11.972-9.132-7.938-67.344-57.877-73.851-63.62-35.138-30.978-69.405-20.392-89.596-2.807-5.934 5.168-13.551 14.066-16.663 21.999.206-3.682-.521-24.293 20.646-49.371 10.141-12.011 29.878-30.586 63.137-30.586 19.305.005 36.675 4.586 59.172 24.935"/><path fill="#4D555A" d="M145.79 423.407a69.74 69.74 0 0 1-2.491-25.441c3.137-7.908 10.724-16.792 16.648-21.941a72.276 72.276 0 0 1 15.539-10.385c-3.457 15.664 4.608 32.866 18.389 44.738 19.655 16.931 53.688 24.686 87.831 3.835 1.76-1.076 3.543-1.358 4.284-.736 1.2 1.008 1.157 2.572.11 3.944-7.005 9.204-36.065 49.165-78.456 49.165-28.152 0-53.755-15.032-61.854-43.179m-37.891 70.471c-.727 6.904-5.192 48.769-5.556 50.834-.402 2.252-2.362 3.29-4.365 3.29H85.465l5.752-50.089h-7.646a3.298 3.298 0 0 1-3.251-3.773c.253-2.214 2.472-4.164 4.681-4.164h18.518c3.591.005 4.619 1.554 4.38 3.902m137.972 25.116c1.95-15.74-9.759-29.013-28.1-29.013H200.99c-4.557 0-8.984 1.176-9.63 5.856l-2.582 22.242c0 .139.139 1.301.521 1.822.784 1.052 1.568 1.435 2.735 1.435h15.491c2.079 0 4.164-1.827 4.418-3.897.268-2.605-.784-3.509-2.214-3.509h-4.423l1.659-16.137h9.113c9.366 0 14.443 10.542 13.139 21.597-1.43 11.059-9.099 21.075-17.949 21.075h-21.73c-2.09 0-4.164 1.956-4.557 4.041-.129 1.955 1.176 3.504 3.122 3.504h22.113c17.835-.004 33.833-13.143 35.655-29.016m-65.966-10.663c-1.109 10.218-2.854 27.55-3.945 36.123-.263 2.586-1.478 3.552-3.619 3.552H159c.774-6.244 2.706-25.498 4.012-34.735 1.559-11.58-3.901-15.353-13.277-15.353h-10.06l-5.552 50.088h-16.356l5.814-50.088H118.9c-1.95 0-3.38-1.951-3.117-3.901.259-2.214 2.343-4.036 4.418-4.036h38.518c19.517-.001 22.361 7.679 21.186 18.35m-104.864 0c-1.147 10.476-2.959 28.358-3.987 36.658-.282 2.28-1.778 3.017-3.299 3.017H54.306c.783-6.244 2.581-25.498 3.882-34.735 1.821-12.623-5.341-15.353-13.268-15.353H34.726l-5.297 48.793c-.13 1.295-.521 1.295-.914 1.295H3.28c-1.821 0-3.504-1.95-3.251-4.03.263-1.955 2.214-3.644 4.557-3.644h9.127l4.882-42.414h-4.518c-1.951 0-3.386-1.951-3.118-3.901.254-2.214 2.343-4.035 4.547-4.035h38.389c19.645-.001 22.442 7.678 21.146 18.349m220.636 16.366l2.897-26.779h-7.545a3.379 3.379 0 0 1-3.332-3.772c.21-2.214 2.381-4.165 4.59-4.165h18.909c3.424 0 4.236 1.755 4.089 3.897-.229 3.37-2.778 27.043-2.778 27.043-1.349 15.228-9.979 29.064-35.171 27.19-14.941-1.1-25.642-12.097-24.418-27.19l1.086-9.821 2.161-21.123s3.423.009 5.938 0c6.636 0 11.398 3.504 10.771 10.274l-2.696 24.045c-.736 8.071 5.278 14.836 13.469 14.836 7.412.005 11.285-7.157 12.03-14.435m316.069-4.666c1.951-15.874-7.416-30.05-33.048-30.05h-31.743c-2.084 0-4.279 1.496-4.557 3.705-.301 2.405 1.057 4.231 3.252 4.231h5.082l-5.838 50.088h17.231s5.432-50.088 5.565-50.088h11.365c8.592 0 17.17 7.497 15.654 21.339-1.568 13.139-2.716 20.311-15.463 20.956l-2.864.268c-1.3 0-3.782 1.301-4.04 3.896a3.213 3.213 0 0 0 2.821 3.639l3.38.01c24.196 0 31.257-11.465 33.203-27.994m-85.517-22.113s-4.968 45.861-5.092 46.68c-.363 2.252-2.104 3.408-4.098 3.408h-12.775l5.833-50.088h-5.853c-1.955 0-3.39-1.951-3.122-4.04.254-2.08 2.338-3.896 4.418-3.896h27.454c1.96 0 3.39 1.559 3.127 3.514-.268 2.08-2.477 4.423-4.557 4.423h-5.335m-30.686 10.542c-1.033 10.083-2.745 27.104-4.084 35.635-.425 2.768-2.275 3.906-4.413 3.906h-12.837c2.328-18.887 2.979-24.839 3.925-34.607 1.086-11.088-3.107-15.734-12.866-15.734-5.718-.135-14.568 0-14.568 0a3.056 3.056 0 0 1-3.017-3.515c.248-2.214 2.313-4.164 4.394-4.164h21.73c19.517-.001 22.826 7.807 21.736 18.479m-53.407-.13a2474.115 2474.115 0 0 1-4.355 36.123c-.268 2.586-1.478 3.552-3.619 3.552h-13.746c.77-6.244 3.112-25.498 4.418-34.735 1.559-11.58-3.901-15.353-13.269-15.353h-10.193l-5.422 50.088h-16.53l5.738-50.088h-4.442c-1.945 0-3.38-1.951-3.117-3.901.263-2.214 2.348-4.035 4.428-4.035h38.513c19.517-.001 22.773 7.678 21.596 18.349m-71.121-14.453c-.373 3.188-2.396 23.743-2.777 26.627-.315 2.338-2.415 3.146-4.395 3.146h-11.197l2.888-25.737h-8.846a3.294 3.294 0 0 1-3.256-3.773c.259-2.214 2.472-4.164 4.681-4.164h18.575c2.969.003 4.599 1.615 4.327 3.901"/></svg>